<svg id="Layer_1" data-name="Layer 1" xmlns="http://www.w3.org/2000/svg" viewBox="0 0 957.95313 864.74512"><title>Eatqualizer 1080 </title><g id="logo"><path d="M427.77652,327.07988c-10.77047-9.72933-14.59968-20.3931-14.43-34.53417.55764-46.47595.23781-183.97353.23781-183.97353a5.02882,5.02882,0,0,0-5.01163-5H386.45083a4.94108,4.94108,0,0,0-4.93885,4.99963s1.69324,138.45124,2.64583,185.41086c.27562,13.58574-4.02357,23.87538-14.46382,33.07533-43.52945,38.35857-40.91814,117.93278,4.5332,154.381,16.0427,12.86484,33.72028,13.54323,49.01115-.03859C460.38061,448.40905,478.31515,372.73322,427.77652,327.07988Z" transform="translate(-72.14648 -101.63965)"/><path d="M727.85945,370.78128c-10.77047-9.72933-14.59967-20.3931-14.43-34.53417.55765-46.476.23509-227.67493.23509-227.67493a5.02551,5.02551,0,0,0-5.0089-5H686.53376a4.95818,4.95818,0,0,0-4.95313,4.99978s1.70752,182.15249,2.66011,229.11211c.27562,13.58574-4.02357,23.87538-14.46382,33.07532-43.52944,38.35858-40.91814,117.93279,4.5332,154.381,16.0427,12.86485,33.72028,13.54324,49.01115-.03858C760.46355,492.11045,778.39808,416.43462,727.85945,370.78128Z" transform="translate(-72.14648 -101.63965)"/><path d="M579.2747,464.01092c-10.77047-9.72932-14.59968-20.39309-14.43-34.53416.55765-46.476.23212-320.90457.23212-320.90457a5.0219,5.0219,0,0,0-5.00593-5H537.949a4.9769,4.9769,0,0,0-4.96871,4.9999s1.7231,275.382,2.67569,322.34164c.27562,13.58574-4.02357,23.87537-14.46382,33.07532-43.52945,38.35858-40.91814,117.93278,4.5332,154.381,16.04269,12.86485,33.72028,13.54324,49.01115-.03858C611.87879,585.3401,629.81333,509.66427,579.2747,464.01092Z" transform="translate(-72.14648 -101.63965)"/><path d="M380.94475,505.62505h-2.72956v196.9438a21.85262,21.85262,0,0,0,43.7014,0V505.62505h-2.31808C407.26784,513.782,393.74541,513.46031,380.94475,505.62505Z" transform="translate(-72.14648 -101.63965)"/><path d="M529.5295,639.64267h-2.72956v62.92618a21.85262,21.85262,0,0,0,43.7014,0V639.64267h-2.31808C555.85259,647.79959,542.33016,647.47793,529.5295,639.64267Z" transform="translate(-72.14648 -101.63965)"/><path d="M681.02768,546.413h-2.72956V706.594c0,9.686,9.78285,17.53806,21.8507,17.53806s21.8507-7.852,21.8507-17.53806V546.413h-2.31808C707.35077,553.04732,693.82834,552.7857,681.02768,546.413Z" transform="translate(-72.14648 -101.63965)"/><path d="M787.86426,101.63965a41.75474,41.75474,0,0,1,41.95019,41.95019,40.69138,40.69138,0,0,1-5.668,20.94776,41.938,41.938,0,0,1-15.30761,15.27978,41.9453,41.9453,0,0,1-57.31153-57.28467,41.82079,41.82079,0,0,1,36.33692-20.89306Zm0,8.21484a32.70947,32.70947,0,0,0-16.9502,4.54541,33.84889,33.84889,0,0,0-12.21289,12.29492,33.84482,33.84482,0,0,0,0,33.79,33.68845,33.68845,0,0,0,12.24024,12.21289,32.906,32.906,0,0,0,16.92285,4.51807A33.763,33.763,0,0,0,817.08105,160.54a33.80789,33.80789,0,0,0-.02734-33.81787,33.879,33.879,0,0,0-12.29492-12.32227A32.80178,32.80178,0,0,0,787.86426,109.85449Zm19.05762,23.76807-8.98145,2.13574q-2.90333-7.66626-9.74805-7.667a9.66916,9.66916,0,0,0-8.24218,4.05273q-2.98536,4.05323-2.98438,10.78858a27.59035,27.59035,0,0,0,1.25977,8.9541,11.17786,11.17786,0,0,0,3.69629,5.47656,9.41422,9.41422,0,0,0,5.832,1.835q7.55859,0,10.29589-9.41992l8.87208,3.01221q-4.38135,14.23974-19.38672,14.23926a19.89527,19.89527,0,0,1-9.99414-2.62891,18.91935,18.91935,0,0,1-7.4209-7.99561,30.47257,30.47257,0,0,1-.21973-25.00048,19.17414,19.17414,0,0,1,7.36621-8.13282,21.29965,21.29965,0,0,1,11.25488-2.90283Q802.10206,120.36914,806.92188,133.62256Z" transform="translate(-72.14648 -101.63965)"/></g><path d="M72.14648,798.86914h71.97168v24.55762H97.063v23.84179h47.05517v24.11036H97.063v34.68554h47.05517v24.64844H72.14648Z" transform="translate(-72.14648 -101.63965)"/><path d="M236.79443,833.19629h24.46875v97.5166H236.79443V920.40527a47.96011,47.96011,0,0,1-14.36865,9.81446,40.22909,40.22909,0,0,1-15.62207,3.00293q-18.88915,0-32.67676-14.6543-13.78637-14.6543-13.78613-36.43457,0-22.58643,13.33936-37.0166,13.33959-14.42871,32.40771-14.42969a41.19739,41.19739,0,0,1,16.4707,3.31543,44.99419,44.99419,0,0,1,14.23584,9.94922Zm-25.72216,20.07715a24.72449,24.72449,0,0,0-18.84864,8.02148q-7.50366,8.02294-7.50342,20.57031,0,12.63721,7.63624,20.79395a24.748,24.748,0,0,0,18.80419,8.15625,25.20729,25.20729,0,0,0,19.11622-8.02148q7.59154-8.02149,7.59326-21.01856,0-12.7251-7.59326-20.61426Q222.68457,853.27442,211.07227,853.27344Z" transform="translate(-72.14648 -101.63965)"/><path d="M288.959,797.25586h24.46875v35.94043h14.51954v21.06348H313.42773v76.45312H288.959V854.25977H276.41064V833.19629H288.959Z" transform="translate(-72.14648 -101.63965)"/><path d="M413.00488,833.19629h24.46875V966.38477H413.00488v-45.9795a47.96011,47.96011,0,0,1-14.36865,9.81446,40.22913,40.22913,0,0,1-15.62207,3.00293q-18.88916,0-32.67676-14.6543-13.78638-14.6543-13.78613-36.43457,0-22.58643,13.33936-37.0166,13.33959-14.42871,32.40771-14.42969a41.19739,41.19739,0,0,1,16.4707,3.31543,44.9943,44.9943,0,0,1,14.23584,9.94922Zm-25.72217,20.07715a24.72449,24.72449,0,0,0-18.84863,8.02148q-7.50366,8.02294-7.50342,20.57031,0,12.63721,7.63623,20.79395a24.74807,24.74807,0,0,0,18.8042,8.15625A25.20726,25.20726,0,0,0,406.4873,902.794q7.59156-8.02149,7.59327-21.01856,0-12.7251-7.59327-20.61426Q398.895,853.27442,387.28271,853.27344Z" transform="translate(-72.14648 -101.63965)"/><path d="M462.12207,833.19629h24.73731v46.96582q0,13.71387,1.88671,19.0459a16.61511,16.61511,0,0,0,6.06543,8.291,17.34784,17.34784,0,0,0,10.2876,2.958,17.9677,17.9677,0,0,0,10.37744-2.91308,17.088,17.088,0,0,0,6.334-8.55957q1.52709-4.21143,1.52783-18.01563V833.19629h24.46826v41.31934q0,25.54394-4.0332,34.95507A38.11963,38.11963,0,0,1,529.25391,927.083q-9.5918,6.13769-24.37891,6.13965-16.04517,0-25.94775-7.1709-9.90454-7.16895-13.937-19.98731-2.86962-8.87256-2.86816-32.26562Z" transform="translate(-72.14648 -101.63965)"/><path d="M644.33789,833.19629h24.46875v97.5166H644.33789V920.40527a47.97422,47.97422,0,0,1-14.36914,9.81446,40.226,40.226,0,0,1-15.62109,3.00293q-18.89062,0-32.67774-14.6543t-13.78613-36.43457q0-22.58643,13.33887-37.0166,13.33885-14.42871,32.4082-14.42969a41.20249,41.20249,0,0,1,16.4707,3.31543,45.007,45.007,0,0,1,14.23633,9.94922Zm-25.72266,20.07715a24.72092,24.72092,0,0,0-18.84765,8.02148q-7.50586,8.02294-7.50391,20.57031,0,12.63721,7.63672,20.79395a24.74348,24.74348,0,0,0,18.80274,8.15625,25.20937,25.20937,0,0,0,19.11718-8.02148q7.59083-8.02149,7.5918-21.01856,0-12.7251-7.5918-20.61426Q630.22656,853.27442,618.61523,853.27344Z" transform="translate(-72.14648 -101.63965)"/><path d="M690.85449,795.55273h24.46875V930.71289H690.85449Z" transform="translate(-72.14648 -101.63965)"/><path d="M747.09668,793.043a14.9667,14.9667,0,0,1,11.03711,4.66016,15.483,15.483,0,0,1,4.60351,11.29394,15.2951,15.2951,0,0,1-4.55859,11.1582,14.78229,14.78229,0,0,1-10.90234,4.61621,14.99628,14.99628,0,0,1-11.12793-4.70507,15.73752,15.73752,0,0,1-4.60254-11.42774,15.58409,15.58409,0,0,1,15.55078-15.5957ZM734.8623,833.19629h24.46875v97.5166H734.8623Z" transform="translate(-72.14648 -101.63965)"/><path d="M777.43652,833.19629h74.66114l-43.8125,76.8125h41.30273v20.7041h-78.874l44.01465-76.81152h-37.292Z" transform="translate(-72.14648 -101.63965)"/><path d="M963.68555,889.03516h-78.6045a26.16162,26.16162,0,0,0,9.09668,16.53711q7.39454,6.13915,18.86719,6.13964a32.61815,32.61815,0,0,0,23.57227-9.59082l20.61523,9.67969a48.664,48.664,0,0,1-18.46387,16.17871q-10.75488,5.24268-25.54394,5.24317-22.94678,0-37.376-14.47559Q861.417,904.27441,861.419,882.49219q0-22.3169,14.38574-37.06153,14.38476-14.74218,36.07519-14.74316,23.03467,0,37.46485,14.74316,14.43016,14.74512,14.43066,38.94434ZM939.2168,869.76563A24.55523,24.55523,0,0,0,929.6543,856.5a27.7263,27.7263,0,0,0-16.56446-5.1084,29.29287,29.29287,0,0,0-17.95507,5.73633q-4.84865,3.58593-8.97852,12.6377Z" transform="translate(-72.14648 -101.63965)"/><path d="M977.75684,833.19629h20.97265v12.2793a26.20139,26.20139,0,0,1,9.05274-11.02442,21.84017,21.84017,0,0,1,12.36914-3.76367,22.90131,22.90131,0,0,1,9.94824,2.50879l-7.61816,21.06348a16.82376,16.82376,0,0,0-7.08106-2.15137q-5.64551,0-9.54492,6.99121-3.89941,6.99024-3.89942,27.42578l.08985,4.751v39.43652H977.75684Z" transform="translate(-72.14648 -101.63965)"/></svg>